<mxfile host="app.diagrams.net" modified="2020-11-18T12:42:19.548Z" agent="5.0 (Windows NT 10.0; Win64; x64) AppleWebKit/537.36 (KHTML, like Gecko) Chrome/88.0.4315.5 Safari/537.36" etag="_2bwcLZ5cqVA1EyvtJmg" version="13.9.9" type="github">
  <diagram id="-hHKwc8TE8wEk4itMou8" name="Page-1">
    <mxGraphModel dx="942" dy="582" grid="1" gridSize="10" guides="1" tooltips="1" connect="1" arrows="1" fold="1" page="1" pageScale="1" pageWidth="850" pageHeight="1100" math="0" shadow="0">
      <root>
        <mxCell id="0" />
        <mxCell id="1" parent="0" />
        <mxCell id="u_T7zBw5QUFRuD9IZm7b-1" value="" style="ellipse;html=1;shape=startState;fillColor=#000000;strokeColor=#ff0000;" parent="1" vertex="1">
          <mxGeometry x="390" y="10" width="30" height="30" as="geometry" />
        </mxCell>
        <mxCell id="u_T7zBw5QUFRuD9IZm7b-2" value="" style="edgeStyle=orthogonalEdgeStyle;html=1;verticalAlign=bottom;endArrow=open;endSize=8;strokeColor=#ff0000;" parent="1" source="u_T7zBw5QUFRuD9IZm7b-1" target="u_T7zBw5QUFRuD9IZm7b-3" edge="1">
          <mxGeometry relative="1" as="geometry">
            <mxPoint x="405" y="230" as="targetPoint" />
          </mxGeometry>
        </mxCell>
        <mxCell id="u_T7zBw5QUFRuD9IZm7b-3" value="Người dùng chọn thêm tài khoản" style="rounded=1;whiteSpace=wrap;html=1;arcSize=40;fontColor=#000000;fillColor=#ffffc0;strokeColor=#ff0000;" parent="1" vertex="1">
          <mxGeometry x="345" y="110" width="120" height="40" as="geometry" />
        </mxCell>
        <mxCell id="u_T7zBw5QUFRuD9IZm7b-4" value="" style="edgeStyle=orthogonalEdgeStyle;html=1;verticalAlign=bottom;endArrow=open;endSize=8;strokeColor=#ff0000;" parent="1" source="u_T7zBw5QUFRuD9IZm7b-3" target="u_T7zBw5QUFRuD9IZm7b-16" edge="1">
          <mxGeometry relative="1" as="geometry">
            <mxPoint x="404.72" y="325" as="targetPoint" />
          </mxGeometry>
        </mxCell>
        <mxCell id="u_T7zBw5QUFRuD9IZm7b-7" value="Nhập thông tin tài khoản mới" style="rounded=1;whiteSpace=wrap;html=1;arcSize=40;fontColor=#000000;fillColor=#ffffc0;strokeColor=#ff0000;" parent="1" vertex="1">
          <mxGeometry x="345" y="330" width="120" height="40" as="geometry" />
        </mxCell>
        <mxCell id="u_T7zBw5QUFRuD9IZm7b-8" value="" style="edgeStyle=orthogonalEdgeStyle;html=1;verticalAlign=bottom;endArrow=open;endSize=8;strokeColor=#ff0000;entryX=0.5;entryY=0;entryDx=0;entryDy=0;" parent="1" source="u_T7zBw5QUFRuD9IZm7b-7" target="u_T7zBw5QUFRuD9IZm7b-9" edge="1">
          <mxGeometry relative="1" as="geometry">
            <mxPoint x="405" y="440" as="targetPoint" />
          </mxGeometry>
        </mxCell>
        <mxCell id="u_T7zBw5QUFRuD9IZm7b-9" value="" style="rhombus;whiteSpace=wrap;html=1;fillColor=#ffffc0;strokeColor=#ff0000;" parent="1" vertex="1">
          <mxGeometry x="365" y="460" width="80" height="40" as="geometry" />
        </mxCell>
        <mxCell id="u_T7zBw5QUFRuD9IZm7b-10" value="no" style="edgeStyle=orthogonalEdgeStyle;html=1;align=left;verticalAlign=bottom;endArrow=open;endSize=8;strokeColor=#ff0000;entryX=0.5;entryY=1;entryDx=0;entryDy=0;" parent="1" source="u_T7zBw5QUFRuD9IZm7b-9" target="u_T7zBw5QUFRuD9IZm7b-13" edge="1">
          <mxGeometry x="-1" relative="1" as="geometry">
            <mxPoint x="200" y="460" as="targetPoint" />
            <mxPoint x="340" y="480" as="sourcePoint" />
          </mxGeometry>
        </mxCell>
        <mxCell id="u_T7zBw5QUFRuD9IZm7b-11" value="yes" style="edgeStyle=orthogonalEdgeStyle;html=1;align=left;verticalAlign=top;endArrow=open;endSize=8;strokeColor=#ff0000;" parent="1" source="u_T7zBw5QUFRuD9IZm7b-9" target="u_T7zBw5QUFRuD9IZm7b-35" edge="1">
          <mxGeometry x="-1" relative="1" as="geometry">
            <mxPoint x="405" y="580" as="targetPoint" />
          </mxGeometry>
        </mxCell>
        <mxCell id="u_T7zBw5QUFRuD9IZm7b-12" value="&lt;span&gt;Thông tin tài khoản &lt;br&gt;hợp lệ hay không?&lt;/span&gt;" style="text;html=1;align=center;verticalAlign=middle;resizable=0;points=[];autosize=1;" parent="1" vertex="1">
          <mxGeometry x="410" y="430" width="120" height="30" as="geometry" />
        </mxCell>
        <mxCell id="u_T7zBw5QUFRuD9IZm7b-13" value="Thông báo thông tin nhập vào không hợp lệ" style="rounded=1;whiteSpace=wrap;html=1;arcSize=40;fontColor=#000000;fillColor=#ffffc0;strokeColor=#ff0000;" parent="1" vertex="1">
          <mxGeometry x="140" y="390" width="140" height="40" as="geometry" />
        </mxCell>
        <mxCell id="u_T7zBw5QUFRuD9IZm7b-14" value="" style="edgeStyle=orthogonalEdgeStyle;html=1;verticalAlign=bottom;endArrow=open;endSize=8;strokeColor=#ff0000;entryX=0;entryY=0.5;entryDx=0;entryDy=0;exitX=0.5;exitY=0;exitDx=0;exitDy=0;" parent="1" source="u_T7zBw5QUFRuD9IZm7b-13" target="u_T7zBw5QUFRuD9IZm7b-7" edge="1">
          <mxGeometry relative="1" as="geometry">
            <mxPoint x="180" y="430" as="targetPoint" />
            <Array as="points">
              <mxPoint x="210" y="350" />
            </Array>
          </mxGeometry>
        </mxCell>
        <mxCell id="u_T7zBw5QUFRuD9IZm7b-16" value="Người dùng chọn loại tài khoản" style="rounded=1;whiteSpace=wrap;html=1;arcSize=40;fontColor=#000000;fillColor=#ffffc0;strokeColor=#ff0000;" parent="1" vertex="1">
          <mxGeometry x="345" y="210" width="120" height="40" as="geometry" />
        </mxCell>
        <mxCell id="u_T7zBw5QUFRuD9IZm7b-17" value="" style="edgeStyle=orthogonalEdgeStyle;html=1;verticalAlign=bottom;endArrow=open;endSize=8;strokeColor=#ff0000;entryX=0.5;entryY=0;entryDx=0;entryDy=0;" parent="1" source="u_T7zBw5QUFRuD9IZm7b-16" target="u_T7zBw5QUFRuD9IZm7b-7" edge="1">
          <mxGeometry relative="1" as="geometry">
            <mxPoint x="240" y="300" as="targetPoint" />
          </mxGeometry>
        </mxCell>
        <mxCell id="u_T7zBw5QUFRuD9IZm7b-18" value="Kiểm tra tài khoản đã tồn tại." style="rounded=1;whiteSpace=wrap;html=1;arcSize=40;fontColor=#000000;fillColor=#ffffc0;strokeColor=#ff0000;" parent="1" vertex="1">
          <mxGeometry x="345" y="800" width="120" height="40" as="geometry" />
        </mxCell>
        <mxCell id="u_T7zBw5QUFRuD9IZm7b-19" value="" style="edgeStyle=orthogonalEdgeStyle;html=1;verticalAlign=bottom;endArrow=open;endSize=8;strokeColor=#ff0000;" parent="1" source="u_T7zBw5QUFRuD9IZm7b-18" target="u_T7zBw5QUFRuD9IZm7b-20" edge="1">
          <mxGeometry relative="1" as="geometry">
            <mxPoint x="405" y="930" as="targetPoint" />
          </mxGeometry>
        </mxCell>
        <mxCell id="u_T7zBw5QUFRuD9IZm7b-20" value="" style="rhombus;whiteSpace=wrap;html=1;fillColor=#ffffc0;strokeColor=#ff0000;" parent="1" vertex="1">
          <mxGeometry x="365" y="910" width="80" height="40" as="geometry" />
        </mxCell>
        <mxCell id="u_T7zBw5QUFRuD9IZm7b-21" value="yes" style="edgeStyle=orthogonalEdgeStyle;html=1;align=left;verticalAlign=bottom;endArrow=open;endSize=8;strokeColor=#ff0000;" parent="1" source="u_T7zBw5QUFRuD9IZm7b-20" target="u_T7zBw5QUFRuD9IZm7b-24" edge="1">
          <mxGeometry x="-1" relative="1" as="geometry">
            <mxPoint x="640" y="480" as="targetPoint" />
          </mxGeometry>
        </mxCell>
        <mxCell id="u_T7zBw5QUFRuD9IZm7b-22" value="no" style="edgeStyle=orthogonalEdgeStyle;html=1;align=left;verticalAlign=top;endArrow=open;endSize=8;strokeColor=#ff0000;" parent="1" source="u_T7zBw5QUFRuD9IZm7b-20" target="u_T7zBw5QUFRuD9IZm7b-26" edge="1">
          <mxGeometry x="-1" relative="1" as="geometry">
            <mxPoint x="405" y="1070" as="targetPoint" />
          </mxGeometry>
        </mxCell>
        <mxCell id="u_T7zBw5QUFRuD9IZm7b-23" value="Tài khoản đã tồn tại&lt;br&gt;hay chưa?" style="text;html=1;align=center;verticalAlign=middle;resizable=0;points=[];autosize=1;" parent="1" vertex="1">
          <mxGeometry x="280" y="890" width="120" height="30" as="geometry" />
        </mxCell>
        <mxCell id="u_T7zBw5QUFRuD9IZm7b-24" value="Thông báo tài khoản đã tồn tại" style="rounded=1;whiteSpace=wrap;html=1;arcSize=40;fontColor=#000000;fillColor=#ffffc0;strokeColor=#ff0000;" parent="1" vertex="1">
          <mxGeometry x="560" y="490" width="120" height="40" as="geometry" />
        </mxCell>
        <mxCell id="u_T7zBw5QUFRuD9IZm7b-25" value="" style="edgeStyle=orthogonalEdgeStyle;html=1;verticalAlign=bottom;endArrow=open;endSize=8;strokeColor=#ff0000;entryX=1;entryY=0.5;entryDx=0;entryDy=0;" parent="1" source="u_T7zBw5QUFRuD9IZm7b-24" target="u_T7zBw5QUFRuD9IZm7b-7" edge="1">
          <mxGeometry relative="1" as="geometry">
            <mxPoint x="660" y="470" as="targetPoint" />
            <Array as="points">
              <mxPoint x="620" y="350" />
            </Array>
          </mxGeometry>
        </mxCell>
        <mxCell id="u_T7zBw5QUFRuD9IZm7b-26" value="Lưu thông tin tài khoản" style="rounded=1;whiteSpace=wrap;html=1;arcSize=40;fontColor=#000000;fillColor=#ffffc0;strokeColor=#ff0000;" parent="1" vertex="1">
          <mxGeometry x="345" y="1040" width="120" height="40" as="geometry" />
        </mxCell>
        <mxCell id="u_T7zBw5QUFRuD9IZm7b-27" value="" style="edgeStyle=orthogonalEdgeStyle;html=1;verticalAlign=bottom;endArrow=open;endSize=8;strokeColor=#ff0000;entryX=0.5;entryY=0;entryDx=0;entryDy=0;" parent="1" source="u_T7zBw5QUFRuD9IZm7b-26" target="u_T7zBw5QUFRuD9IZm7b-28" edge="1">
          <mxGeometry relative="1" as="geometry">
            <mxPoint x="405" y="1120" as="targetPoint" />
          </mxGeometry>
        </mxCell>
        <mxCell id="u_T7zBw5QUFRuD9IZm7b-28" value="" style="rhombus;whiteSpace=wrap;html=1;fillColor=#ffffc0;strokeColor=#ff0000;" parent="1" vertex="1">
          <mxGeometry x="365" y="1140" width="80" height="40" as="geometry" />
        </mxCell>
        <mxCell id="u_T7zBw5QUFRuD9IZm7b-29" value="no" style="edgeStyle=orthogonalEdgeStyle;html=1;align=left;verticalAlign=bottom;endArrow=open;endSize=8;strokeColor=#ff0000;entryX=0.5;entryY=1;entryDx=0;entryDy=0;" parent="1" source="u_T7zBw5QUFRuD9IZm7b-28" target="u_T7zBw5QUFRuD9IZm7b-32" edge="1">
          <mxGeometry x="-1" relative="1" as="geometry">
            <mxPoint x="720" y="460" as="targetPoint" />
          </mxGeometry>
        </mxCell>
        <mxCell id="u_T7zBw5QUFRuD9IZm7b-30" value="yes" style="edgeStyle=orthogonalEdgeStyle;html=1;align=left;verticalAlign=top;endArrow=open;endSize=8;strokeColor=#ff0000;" parent="1" source="u_T7zBw5QUFRuD9IZm7b-28" target="u_T7zBw5QUFRuD9IZm7b-34" edge="1">
          <mxGeometry x="-1" relative="1" as="geometry">
            <mxPoint x="405" y="1250" as="targetPoint" />
          </mxGeometry>
        </mxCell>
        <mxCell id="u_T7zBw5QUFRuD9IZm7b-31" value="Lưu thành công&lt;br&gt;hay không?" style="text;html=1;align=center;verticalAlign=middle;resizable=0;points=[];autosize=1;" parent="1" vertex="1">
          <mxGeometry x="300" y="1120" width="100" height="30" as="geometry" />
        </mxCell>
        <mxCell id="u_T7zBw5QUFRuD9IZm7b-32" value="Hiển thị thông báo lỗi không xác định" style="rounded=1;whiteSpace=wrap;html=1;arcSize=40;fontColor=#000000;fillColor=#ffffc0;strokeColor=#ff0000;" parent="1" vertex="1">
          <mxGeometry x="700" y="400" width="120" height="40" as="geometry" />
        </mxCell>
        <mxCell id="u_T7zBw5QUFRuD9IZm7b-33" value="" style="edgeStyle=orthogonalEdgeStyle;html=1;verticalAlign=bottom;endArrow=open;endSize=8;strokeColor=#ff0000;entryX=0.75;entryY=0;entryDx=0;entryDy=0;exitX=0.5;exitY=0;exitDx=0;exitDy=0;" parent="1" source="u_T7zBw5QUFRuD9IZm7b-32" target="u_T7zBw5QUFRuD9IZm7b-7" edge="1">
          <mxGeometry relative="1" as="geometry">
            <mxPoint x="740" y="190" as="targetPoint" />
            <Array as="points">
              <mxPoint x="760" y="300" />
              <mxPoint x="435" y="300" />
            </Array>
          </mxGeometry>
        </mxCell>
        <mxCell id="u_T7zBw5QUFRuD9IZm7b-34" value="" style="ellipse;html=1;shape=endState;fillColor=#000000;strokeColor=#ff0000;" parent="1" vertex="1">
          <mxGeometry x="390" y="1240" width="30" height="30" as="geometry" />
        </mxCell>
        <mxCell id="u_T7zBw5QUFRuD9IZm7b-35" value="Xác nhận tạo tài khoản" style="rounded=1;whiteSpace=wrap;html=1;arcSize=40;fontColor=#000000;fillColor=#ffffc0;strokeColor=#ff0000;" parent="1" vertex="1">
          <mxGeometry x="345" y="560" width="120" height="40" as="geometry" />
        </mxCell>
        <mxCell id="u_T7zBw5QUFRuD9IZm7b-36" value="" style="edgeStyle=orthogonalEdgeStyle;html=1;verticalAlign=bottom;endArrow=open;endSize=8;strokeColor=#ff0000;entryX=0.5;entryY=0;entryDx=0;entryDy=0;" parent="1" source="u_T7zBw5QUFRuD9IZm7b-35" target="u_T7zBw5QUFRuD9IZm7b-37" edge="1">
          <mxGeometry relative="1" as="geometry">
            <mxPoint x="405" y="640" as="targetPoint" />
          </mxGeometry>
        </mxCell>
        <mxCell id="u_T7zBw5QUFRuD9IZm7b-37" value="" style="rhombus;whiteSpace=wrap;html=1;fillColor=#ffffc0;strokeColor=#ff0000;" parent="1" vertex="1">
          <mxGeometry x="365" y="670" width="80" height="40" as="geometry" />
        </mxCell>
        <mxCell id="u_T7zBw5QUFRuD9IZm7b-38" value="no" style="edgeStyle=orthogonalEdgeStyle;html=1;align=left;verticalAlign=bottom;endArrow=open;endSize=8;strokeColor=#ff0000;entryX=0.25;entryY=0;entryDx=0;entryDy=0;" parent="1" source="u_T7zBw5QUFRuD9IZm7b-37" target="u_T7zBw5QUFRuD9IZm7b-7" edge="1">
          <mxGeometry x="-1" relative="1" as="geometry">
            <mxPoint x="130" y="300" as="targetPoint" />
            <Array as="points">
              <mxPoint x="110" y="690" />
              <mxPoint x="110" y="300" />
              <mxPoint x="375" y="300" />
            </Array>
          </mxGeometry>
        </mxCell>
        <mxCell id="u_T7zBw5QUFRuD9IZm7b-39" value="yes" style="edgeStyle=orthogonalEdgeStyle;html=1;align=left;verticalAlign=top;endArrow=open;endSize=8;strokeColor=#ff0000;entryX=0.5;entryY=0;entryDx=0;entryDy=0;" parent="1" source="u_T7zBw5QUFRuD9IZm7b-37" target="u_T7zBw5QUFRuD9IZm7b-18" edge="1">
          <mxGeometry x="-1" relative="1" as="geometry">
            <mxPoint x="385" y="770" as="targetPoint" />
          </mxGeometry>
        </mxCell>
        <mxCell id="u_T7zBw5QUFRuD9IZm7b-40" value="Xác nhận&lt;br&gt;tạo tài khoản" style="text;html=1;align=center;verticalAlign=middle;resizable=0;points=[];autosize=1;" parent="1" vertex="1">
          <mxGeometry x="420" y="640" width="80" height="30" as="geometry" />
        </mxCell>
        <mxCell id="bdNDSrImDq5o_G4RIrDo-1" value="Người dùng" style="shape=umlLifeline;participant=umlActor;perimeter=lifelinePerimeter;whiteSpace=wrap;html=1;container=1;collapsible=0;recursiveResize=0;verticalAlign=top;spacingTop=36;outlineConnect=0;labelBackgroundColor=#ffffff;" vertex="1" parent="1">
          <mxGeometry x="30" y="1360" width="20" height="800" as="geometry" />
        </mxCell>
        <mxCell id="bdNDSrImDq5o_G4RIrDo-6" value="" style="html=1;points=[];perimeter=orthogonalPerimeter;labelBackgroundColor=#ffffff;" vertex="1" parent="bdNDSrImDq5o_G4RIrDo-1">
          <mxGeometry x="5" y="120" width="10" height="600" as="geometry" />
        </mxCell>
        <mxCell id="bdNDSrImDq5o_G4RIrDo-2" value="Thêm tài khoản&lt;br&gt;&amp;lt;&amp;lt;boundary&amp;gt;&amp;gt;" style="shape=umlLifeline;participant=umlBoundary;perimeter=lifelinePerimeter;whiteSpace=wrap;html=1;container=1;collapsible=0;recursiveResize=0;verticalAlign=top;spacingTop=36;outlineConnect=0;" vertex="1" parent="1">
          <mxGeometry x="350" y="1360" width="50" height="800" as="geometry" />
        </mxCell>
        <mxCell id="bdNDSrImDq5o_G4RIrDo-7" value="" style="html=1;points=[];perimeter=orthogonalPerimeter;labelBackgroundColor=#ffffff;" vertex="1" parent="bdNDSrImDq5o_G4RIrDo-2">
          <mxGeometry x="20" y="120" width="10" height="610" as="geometry" />
        </mxCell>
        <mxCell id="bdNDSrImDq5o_G4RIrDo-3" value="Tài khoản&lt;br&gt;&amp;lt;&amp;lt;control&amp;gt;&amp;gt;" style="shape=umlLifeline;participant=umlControl;perimeter=lifelinePerimeter;whiteSpace=wrap;html=1;container=1;collapsible=0;recursiveResize=0;verticalAlign=top;spacingTop=36;outlineConnect=0;" vertex="1" parent="1">
          <mxGeometry x="760" y="1360" width="40" height="800" as="geometry" />
        </mxCell>
        <mxCell id="bdNDSrImDq5o_G4RIrDo-8" value="" style="html=1;points=[];perimeter=orthogonalPerimeter;labelBackgroundColor=#ffffff;" vertex="1" parent="bdNDSrImDq5o_G4RIrDo-3">
          <mxGeometry x="15" y="120" width="10" height="610" as="geometry" />
        </mxCell>
        <mxCell id="bdNDSrImDq5o_G4RIrDo-4" value="Tài khoản&lt;br&gt;&amp;lt;&amp;lt;entity&amp;gt;&amp;gt;" style="shape=umlLifeline;participant=umlEntity;perimeter=lifelinePerimeter;whiteSpace=wrap;html=1;container=1;collapsible=0;recursiveResize=0;verticalAlign=top;spacingTop=36;outlineConnect=0;" vertex="1" parent="1">
          <mxGeometry x="1140" y="1360" width="40" height="800" as="geometry" />
        </mxCell>
        <mxCell id="bdNDSrImDq5o_G4RIrDo-9" value="" style="html=1;points=[];perimeter=orthogonalPerimeter;labelBackgroundColor=#ffffff;" vertex="1" parent="bdNDSrImDq5o_G4RIrDo-4">
          <mxGeometry x="15" y="120" width="10" height="610" as="geometry" />
        </mxCell>
        <mxCell id="bdNDSrImDq5o_G4RIrDo-5" value="" style="endArrow=open;endFill=1;endSize=12;html=1;" edge="1" parent="1" source="bdNDSrImDq5o_G4RIrDo-6" target="bdNDSrImDq5o_G4RIrDo-7">
          <mxGeometry width="160" relative="1" as="geometry">
            <mxPoint x="90" y="1530" as="sourcePoint" />
            <mxPoint x="250" y="1530" as="targetPoint" />
            <Array as="points">
              <mxPoint x="300" y="1520" />
            </Array>
          </mxGeometry>
        </mxCell>
        <mxCell id="bdNDSrImDq5o_G4RIrDo-10" value="1. Chọn chức năng thêm tài khoản" style="edgeLabel;html=1;align=center;verticalAlign=middle;resizable=0;points=[];" vertex="1" connectable="0" parent="bdNDSrImDq5o_G4RIrDo-5">
          <mxGeometry x="-0.1569" y="-2" relative="1" as="geometry">
            <mxPoint x="18" y="-12" as="offset" />
          </mxGeometry>
        </mxCell>
        <mxCell id="bdNDSrImDq5o_G4RIrDo-11" value="" style="endArrow=open;endFill=1;endSize=12;html=1;" edge="1" parent="1" source="bdNDSrImDq5o_G4RIrDo-6" target="bdNDSrImDq5o_G4RIrDo-7">
          <mxGeometry width="160" relative="1" as="geometry">
            <mxPoint x="100" y="1600" as="sourcePoint" />
            <mxPoint x="260" y="1600" as="targetPoint" />
            <Array as="points">
              <mxPoint x="220" y="1600" />
            </Array>
          </mxGeometry>
        </mxCell>
        <mxCell id="bdNDSrImDq5o_G4RIrDo-12" value="2. Chọn loại tài khoản" style="edgeLabel;html=1;align=center;verticalAlign=middle;resizable=0;points=[];" vertex="1" connectable="0" parent="bdNDSrImDq5o_G4RIrDo-11">
          <mxGeometry x="-0.2615" y="4" relative="1" as="geometry">
            <mxPoint x="25" y="-4" as="offset" />
          </mxGeometry>
        </mxCell>
        <mxCell id="bdNDSrImDq5o_G4RIrDo-14" value="" style="endArrow=open;endFill=1;endSize=12;html=1;" edge="1" parent="1" source="bdNDSrImDq5o_G4RIrDo-6" target="bdNDSrImDq5o_G4RIrDo-7">
          <mxGeometry width="160" relative="1" as="geometry">
            <mxPoint x="120" y="1670" as="sourcePoint" />
            <mxPoint x="280" y="1670" as="targetPoint" />
            <Array as="points">
              <mxPoint x="220" y="1680" />
            </Array>
          </mxGeometry>
        </mxCell>
        <mxCell id="bdNDSrImDq5o_G4RIrDo-15" value="3. Nhập thông tin tài khoản" style="edgeLabel;html=1;align=center;verticalAlign=middle;resizable=0;points=[];" vertex="1" connectable="0" parent="bdNDSrImDq5o_G4RIrDo-14">
          <mxGeometry x="-0.2062" y="-1" relative="1" as="geometry">
            <mxPoint x="26" y="-11" as="offset" />
          </mxGeometry>
        </mxCell>
        <mxCell id="bdNDSrImDq5o_G4RIrDo-16" value="" style="html=1;points=[];perimeter=orthogonalPerimeter;labelBackgroundColor=#ffffff;" vertex="1" parent="1">
          <mxGeometry x="376" y="1730" width="10" height="40" as="geometry" />
        </mxCell>
        <mxCell id="bdNDSrImDq5o_G4RIrDo-17" value="4. Kiểm tra tính hợp lệ &lt;br&gt;của thông tin nhập vào" style="edgeStyle=orthogonalEdgeStyle;html=1;align=left;spacingLeft=2;endArrow=block;rounded=0;entryX=1;entryY=0;" edge="1" target="bdNDSrImDq5o_G4RIrDo-16" parent="1">
          <mxGeometry relative="1" as="geometry">
            <mxPoint x="379" y="1710" as="sourcePoint" />
            <Array as="points">
              <mxPoint x="379" y="1710" />
              <mxPoint x="410" y="1710" />
              <mxPoint x="410" y="1730" />
            </Array>
          </mxGeometry>
        </mxCell>
        <mxCell id="bdNDSrImDq5o_G4RIrDo-18" value="5. Thông báo thông tin không hợp lệ" style="html=1;verticalAlign=bottom;endArrow=open;dashed=1;endSize=8;" edge="1" parent="1" source="bdNDSrImDq5o_G4RIrDo-16" target="bdNDSrImDq5o_G4RIrDo-6">
          <mxGeometry relative="1" as="geometry">
            <mxPoint x="290" y="1840" as="sourcePoint" />
            <mxPoint x="210" y="1840" as="targetPoint" />
          </mxGeometry>
        </mxCell>
        <mxCell id="bdNDSrImDq5o_G4RIrDo-20" value="" style="endArrow=open;endFill=1;endSize=12;html=1;" edge="1" parent="1" source="bdNDSrImDq5o_G4RIrDo-7" target="bdNDSrImDq5o_G4RIrDo-8">
          <mxGeometry width="160" relative="1" as="geometry">
            <mxPoint x="490" y="1870" as="sourcePoint" />
            <mxPoint x="650" y="1870" as="targetPoint" />
            <Array as="points">
              <mxPoint x="420" y="1840" />
            </Array>
          </mxGeometry>
        </mxCell>
        <mxCell id="bdNDSrImDq5o_G4RIrDo-21" value="6. Kiểm tra tài khoản đã tồn tại" style="edgeLabel;html=1;align=center;verticalAlign=middle;resizable=0;points=[];" vertex="1" connectable="0" parent="bdNDSrImDq5o_G4RIrDo-20">
          <mxGeometry x="-0.281" y="-2" relative="1" as="geometry">
            <mxPoint x="38" y="-12" as="offset" />
          </mxGeometry>
        </mxCell>
        <mxCell id="bdNDSrImDq5o_G4RIrDo-22" value="" style="endArrow=open;endFill=1;endSize=12;html=1;" edge="1" parent="1" target="bdNDSrImDq5o_G4RIrDo-9">
          <mxGeometry width="160" relative="1" as="geometry">
            <mxPoint x="784" y="1880" as="sourcePoint" />
            <mxPoint x="950" y="1880" as="targetPoint" />
          </mxGeometry>
        </mxCell>
        <mxCell id="bdNDSrImDq5o_G4RIrDo-23" value="7. Kiểm tra tài khoản đã tồn tại" style="edgeLabel;html=1;align=center;verticalAlign=middle;resizable=0;points=[];" vertex="1" connectable="0" parent="bdNDSrImDq5o_G4RIrDo-22">
          <mxGeometry x="-0.407" y="-1" relative="1" as="geometry">
            <mxPoint x="76" y="-10.96" as="offset" />
          </mxGeometry>
        </mxCell>
        <mxCell id="bdNDSrImDq5o_G4RIrDo-24" value="" style="html=1;verticalAlign=bottom;endArrow=open;dashed=1;endSize=8;" edge="1" parent="1" source="bdNDSrImDq5o_G4RIrDo-9" target="bdNDSrImDq5o_G4RIrDo-8">
          <mxGeometry relative="1" as="geometry">
            <mxPoint x="1000" y="2010" as="sourcePoint" />
            <mxPoint x="920" y="2010" as="targetPoint" />
            <Array as="points">
              <mxPoint x="810" y="1920" />
            </Array>
          </mxGeometry>
        </mxCell>
        <mxCell id="bdNDSrImDq5o_G4RIrDo-29" value="8" style="edgeLabel;html=1;align=center;verticalAlign=middle;resizable=0;points=[];" vertex="1" connectable="0" parent="bdNDSrImDq5o_G4RIrDo-24">
          <mxGeometry x="0.2951" y="-2" relative="1" as="geometry">
            <mxPoint x="52" y="-9.37" as="offset" />
          </mxGeometry>
        </mxCell>
        <mxCell id="bdNDSrImDq5o_G4RIrDo-26" value="" style="html=1;verticalAlign=bottom;endArrow=open;dashed=1;endSize=8;" edge="1" parent="1" source="bdNDSrImDq5o_G4RIrDo-8" target="bdNDSrImDq5o_G4RIrDo-7">
          <mxGeometry relative="1" as="geometry">
            <mxPoint x="610" y="2070" as="sourcePoint" />
            <mxPoint x="530" y="2070" as="targetPoint" />
            <Array as="points">
              <mxPoint x="520" y="1960" />
            </Array>
          </mxGeometry>
        </mxCell>
        <mxCell id="bdNDSrImDq5o_G4RIrDo-30" value="9" style="edgeLabel;html=1;align=center;verticalAlign=middle;resizable=0;points=[];" vertex="1" connectable="0" parent="bdNDSrImDq5o_G4RIrDo-26">
          <mxGeometry x="0.0734" y="-4" relative="1" as="geometry">
            <mxPoint x="7" y="-4" as="offset" />
          </mxGeometry>
        </mxCell>
        <mxCell id="bdNDSrImDq5o_G4RIrDo-27" value="" style="endArrow=open;endFill=1;endSize=12;html=1;" edge="1" parent="1">
          <mxGeometry width="160" relative="1" as="geometry">
            <mxPoint x="370" y="2000" as="sourcePoint" />
            <mxPoint x="45" y="2000" as="targetPoint" />
            <Array as="points" />
          </mxGeometry>
        </mxCell>
        <mxCell id="bdNDSrImDq5o_G4RIrDo-28" value="10. Thông báo tạo tài khoản thành công" style="edgeLabel;html=1;align=center;verticalAlign=middle;resizable=0;points=[];" vertex="1" connectable="0" parent="bdNDSrImDq5o_G4RIrDo-27">
          <mxGeometry x="0.3292" y="-1" relative="1" as="geometry">
            <mxPoint x="46" y="-9" as="offset" />
          </mxGeometry>
        </mxCell>
      </root>
    </mxGraphModel>
  </diagram>
</mxfile>
